<svg id="Layer_1" data-name="Layer 1" xmlns="http://www.w3.org/2000/svg" viewBox="0 0 192.5 192.51"><defs><style>.cls-1{fill:#696969;}</style></defs><title>compass</title><path class="cls-1" d="M99.74,4.86A96.25,96.25,0,1,0,196,101.11,96.36,96.36,0,0,0,99.74,4.86Zm0,188.27a92,92,0,1,1,92-92A92.12,92.12,0,0,1,99.74,193.14Z" transform="translate(-3.5 -4.86)"/><polygon class="cls-1" points="93.88 35.8 98.38 49.7 101.9 49.7 101.9 27.98 98.63 27.98 98.63 42.58 94.28 27.98 90.61 27.98 90.61 49.7 93.88 49.7 93.88 35.8"/><path class="cls-1" d="M105.06,160.44a10.94,10.94,0,0,0-1.84-2.35c-0.24-.25-0.74-0.69-1.49-1.32a10,10,0,0,1-1.43-1.37,4.67,4.67,0,0,1-1.26-3,3,3,0,0,1,.37-1.58,1.47,1.47,0,0,1,1.34-.78,1.59,1.59,0,0,1,1.28.53,3.73,3.73,0,0,1,.75,2.05l3.09-.57a6.1,6.1,0,0,0-.7-2.48,4.53,4.53,0,0,0-1.55-1.67,5.4,5.4,0,0,0-2.94-.77,4.94,4.94,0,0,0-3,.91,5.24,5.24,0,0,0-2,4.43,6.44,6.44,0,0,0,.72,3,12.12,12.12,0,0,0,2.27,2.79l2.86,2.72a3.92,3.92,0,0,1,1.22,2.65,2.55,2.55,0,0,1-.32,1.41,2,2,0,0,1-1.69,1,1.71,1.71,0,0,1-1.34-.6,4.74,4.74,0,0,1-1-2.71l-3.07.22a8.29,8.29,0,0,0,.71,3,5.15,5.15,0,0,0,1.65,2.09,5,5,0,0,0,3.13.94,6.05,6.05,0,0,0,1.79-.24,4.15,4.15,0,0,0,2.22-1.51,6,6,0,0,0,1.16-3.83,5.84,5.84,0,0,0-.47-2A9.37,9.37,0,0,0,105.06,160.44Z" transform="translate(-3.5 -4.86)"/><polygon class="cls-1" points="40.82 97.02 39.09 85.31 35.63 85.31 34.04 97.03 32.31 85.31 28.84 85.31 32.51 107.2 35.68 107.2 37.43 95.15 39.31 107.2 42.46 107.2 45.88 85.31 42.42 85.31 40.82 97.02"/><polygon class="cls-1" points="150.57 107.01 159.8 107.01 159.8 103.75 153.81 103.75 153.81 97.88 158.19 97.88 158.19 94.63 153.81 94.63 153.81 88.75 159.8 88.75 159.8 85.49 150.57 85.49 150.57 107.01"/><path class="cls-1" d="M109.08,106.09a10.57,10.57,0,0,0-14.87-14L65.29,61.55a2.12,2.12,0,1,0-3.08,2.91L91.12,95a10.57,10.57,0,0,0,15.24,14.36L134,137.17a2.12,2.12,0,0,0,3-3Zm-9.34,1.37a6.34,6.34,0,0,1-4.68-10.62,2.07,2.07,0,0,0,.42-0.3,2.12,2.12,0,0,0,.32-0.39A6.35,6.35,0,1,1,99.75,107.47Z" transform="translate(-3.5 -4.86)"/></svg>