<svg id="Layer_1" data-name="Layer 1" xmlns="http://www.w3.org/2000/svg" viewBox="0 0 135.97 193.18"><defs><style>.cls-1{fill:#696969;}</style></defs><title>umbrella</title><path class="cls-1" d="M78.57,34.76a6.94,6.94,0,0,0,3.4.9,6.6,6.6,0,0,0,5.79-3.41,1.74,1.74,0,0,0-3-1.71A3.3,3.3,0,0,1,79,27.32c1-1.78,5.83-6.2,8.18-7.65,0,0.69-.13,1.59-0.21,2.23a1.74,1.74,0,1,0,3.46.41c0.32-2.68.62-5.21-1.3-6.29-1-.56-2.46-0.8-7.39,3.43-2.23,1.92-4.89,4.57-5.79,6.17A6.67,6.67,0,0,0,78.57,34.76Z" transform="translate(-33.28 -5.87)"/><path class="cls-1" d="M119.81,34.76a7,7,0,0,0,3.41.91,6.68,6.68,0,0,0,1.67-.21,6.59,6.59,0,0,0,4.11-3.2,1.74,1.74,0,0,0-3-1.71A3.09,3.09,0,0,1,124,32.08a3.38,3.38,0,0,1-2.5-.36,3.18,3.18,0,0,1-1.31-4.4c1-1.78,5.82-6.2,8.18-7.66,0,0.69-.13,1.59-0.21,2.23a1.74,1.74,0,0,0,3.46.4c0.32-2.68.62-5.2-1.3-6.28-1-.56-2.46-0.8-7.39,3.43-2.23,1.92-4.89,4.57-5.79,6.17A6.66,6.66,0,0,0,119.81,34.76Z" transform="translate(-33.28 -5.87)"/><path class="cls-1" d="M99.19,24.93a6.93,6.93,0,0,0,3.4.9,6.6,6.6,0,0,0,5.79-3.41,1.74,1.74,0,1,0-3-1.71,3.3,3.3,0,0,1-5.76-3.23c1-1.78,5.82-6.2,8.18-7.65,0,0.69-.13,1.59-0.21,2.23a1.74,1.74,0,0,0,3.46.39c0.32-2.67.62-5.19-1.3-6.27-1-.56-2.46-0.8-7.39,3.43-2.23,1.92-4.89,4.57-5.79,6.17A6.66,6.66,0,0,0,99.19,24.93Z" transform="translate(-33.28 -5.87)"/><path class="cls-1" d="M50,106.1" transform="translate(-33.28 -5.87)"/><path class="cls-1" d="M98.14,111.34c-8.12,0-59.94-1-60.68-.82-0.26,0-1.21.06-.48,0.12,0.75-9.67,4.14-32,19.14-48.15,11.06-11.88,26.27-17.91,45.21-17.91s34.16,6.11,45.22,18.15c15,16.3,18.28,38.68,19,48.14-0.18.93,1,.89-0.6,0.81-0.46.44,8.71-.44,0.6-0.81-7.92-.37-28.17-0.87-28.41-0.56-1.09,1.47,2.41-.33,1.8.28-0.88-.44,23.31,1.86,18.06,0-0.24-.33-30.45-1.6-39.08-1.92-9.61.39-14.8,0.08-14.8,5.59V175c0,12.09-7.42,20.53-18,20.53-10.85,0-19.77-8.75-21.21-20.79a1.4,1.4,0,0,1,.3-1.09,2.38,2.38,0,0,1,1.74-.67h0c1,0,1.4,1.69,1.44,1.88,1.9,9.74,9,16.29,17.68,16.29h0c9.36,0,15.17-7,15.17-18.19a1.74,1.74,0,0,0-3.49,0c0,3.45-.84,14.7-11.69,14.71h0c-7.06,0-12.66-5.29-14.26-13.47-0.57-2.93-2.6-4.79-5.08-4.69a5.66,5.66,0,0,0-4.23,1.9,4.84,4.84,0,0,0-1.09,3.75c1.65,13.83,12,23.87,24.67,23.87s21.54-9.88,21.54-24V114.23c0-3.85,8.24-2.74,15.63-2.56,6.48,0,23,1.26,23.06,1.35,9.57,0.78,21.94,4.82,22.17,4.35,1-2.06-1.88-1.74-5.27-5.75,0-.06-3.32,1.69,3.06,1.69s-3-1-2.92-.91c3.69,5,4.42,5,5.13,5,1.78,0,1.78-1.83,1.78-2.52s-0.11-20.62-10-39.73c-11.46-22.25-31.5-34-58-34C74.62,41.1,54.47,52.95,43,75.36c-9.66,19-9.77,38.76-9.77,39.59,0,1.6.6,2.42,1.77,2.42" transform="translate(-33.28 -5.87)"/></svg>