<svg id="Layer_1" data-name="Layer 1" xmlns="http://www.w3.org/2000/svg" viewBox="0 0 183.31 192.48"><defs><style>.cls-1{fill:#696969;}</style></defs><title>wallet</title><path class="cls-1" d="M50,106.1" transform="translate(-10.14 -4.19)"/><path class="cls-1" d="M155.65,196.67H36.38a26.27,26.27,0,0,1-26.24-26.24v-101A26.27,26.27,0,0,1,36.38,43.2H51.65L142.56,4.36a2.14,2.14,0,0,1,2.88,1.33l11.8,37.56a26.28,26.28,0,0,1,24.66,26.2v25a14.22,14.22,0,0,1,11.56,14v23a14.22,14.22,0,0,1-11.56,14v25A26.27,26.27,0,0,1,155.65,196.67ZM36.38,47.48a22,22,0,0,0-22,22v101a22,22,0,0,0,22,22H155.65a22,22,0,0,0,22-22v-24.8H116a14.22,14.22,0,0,1-14.2-14.2v-23A14.22,14.22,0,0,1,116,94.25h61.65V69.44a22,22,0,0,0-21.92-22H36.38Zm79.88,93.86h62.49c0.28,0,.56,0,0.84,0a2.1,2.1,0,0,1,.46,0,9.93,9.93,0,0,0,9.13-9.89v-23A9.93,9.93,0,0,0,180,98.56a2.16,2.16,0,0,1-.46,0c-0.28,0-.55,0-0.84,0H116.64A10.52,10.52,0,0,0,106.13,109v22.17A10.14,10.14,0,0,0,116.26,141.34ZM147.64,43.2h5.09l-10.67-34-79.52,34H87.06l51.81-20.6A2.14,2.14,0,0,1,141.71,24Zm-49,0h44.52L138.3,27.43Zm29.75,89a12.27,12.27,0,1,1,12.27-12.27A12.29,12.29,0,0,1,128.39,132.21Zm0-20.27a8,8,0,1,0,8,8A8,8,0,0,0,128.39,111.94Z" transform="translate(-10.14 -4.19)"/></svg>